# xmcd
#
# Track frame offsets: 
#        150
#        28479
#        55734
#        84607
#        109848
#        130716
#        168957
#        192925
#        211460
#        229242
#        243845
#        256806
#        268713
#        288453
#
# Disc length: 4165 seconds
#
# Revision: 1
# Processed by: cddbd v1.4PL0 Copyright (c) Steve Scherf et al.
# Submitted via: ExactAudioCopy v0.90b4
#
DISCID=c810430e
DTITLE=Van Morrison - Too Long In Exile
DYEAR=1993
DGENRE=
TTITLE0=Too Long In Exile
TTITLE1=Bigtime Operators
TTITLE2=Lonely Avenue
TTITLE3=Ball and Chain
TTITLE4=In The Forest
TTITLE5=Till We Get The Healing Done
TTITLE6=Gloria
TTITLE7=Good Morning Little Schoolgirl
TTITLE8=Wasted Years
TTITLE9=The Lonesome Road
TTITLE10=Moody's Mood For Love
TTITLE11=Close Enough For Jazz
TTITLE12=Before The World Was Made
TTITLE13=I'll Take Care Of You
EXTD=
EXTT0=
EXTT1=
EXTT2=
EXTT3=
EXTT4=
EXTT5=
EXTT6=
EXTT7=
EXTT8=
EXTT9=
EXTT10=
EXTT11=
EXTT12=
EXTT13=
PLAYORDER=
